<mxfile host="app.diagrams.net" modified="2020-10-12T12:33:07.703Z" agent="5.0 (Windows NT 10.0; Win64; x64) AppleWebKit/537.36 (KHTML, like Gecko) Chrome/85.0.4183.121 Safari/537.36" etag="pteqNbGI1iggk5zjzAmt" version="13.7.9" type="github">
  <diagram id="C5RBs43oDa-KdzZeNtuy" name="Page-1">
    <mxGraphModel dx="2249" dy="1963" grid="1" gridSize="10" guides="1" tooltips="1" connect="1" arrows="1" fold="1" page="1" pageScale="1" pageWidth="827" pageHeight="1169" math="0" shadow="0">
      <root>
        <mxCell id="WIyWlLk6GJQsqaUBKTNV-0" />
        <mxCell id="WIyWlLk6GJQsqaUBKTNV-1" parent="WIyWlLk6GJQsqaUBKTNV-0" />
        <mxCell id="KF2JliIPJxlirztMf3KN-0" value="цех по Производству чернил" style="rounded=0;whiteSpace=wrap;html=1;" vertex="1" parent="WIyWlLk6GJQsqaUBKTNV-1">
          <mxGeometry x="80" width="120" height="60" as="geometry" />
        </mxCell>
        <mxCell id="KF2JliIPJxlirztMf3KN-14" style="edgeStyle=orthogonalEdgeStyle;rounded=0;orthogonalLoop=1;jettySize=auto;html=1;exitX=0.5;exitY=1;exitDx=0;exitDy=0;" edge="1" parent="WIyWlLk6GJQsqaUBKTNV-1" source="KF2JliIPJxlirztMf3KN-7">
          <mxGeometry relative="1" as="geometry">
            <mxPoint x="324" y="390" as="targetPoint" />
          </mxGeometry>
        </mxCell>
        <mxCell id="KF2JliIPJxlirztMf3KN-15" style="edgeStyle=orthogonalEdgeStyle;rounded=0;orthogonalLoop=1;jettySize=auto;html=1;exitX=0.5;exitY=1;exitDx=0;exitDy=0;" edge="1" parent="WIyWlLk6GJQsqaUBKTNV-1" source="KF2JliIPJxlirztMf3KN-7" target="KF2JliIPJxlirztMf3KN-10">
          <mxGeometry relative="1" as="geometry">
            <Array as="points">
              <mxPoint x="410" y="380" />
              <mxPoint x="490" y="380" />
            </Array>
          </mxGeometry>
        </mxCell>
        <mxCell id="KF2JliIPJxlirztMf3KN-36" style="edgeStyle=orthogonalEdgeStyle;rounded=0;orthogonalLoop=1;jettySize=auto;html=1;exitX=0.5;exitY=1;exitDx=0;exitDy=0;entryX=0.583;entryY=0;entryDx=0;entryDy=0;entryPerimeter=0;" edge="1" parent="WIyWlLk6GJQsqaUBKTNV-1" source="KF2JliIPJxlirztMf3KN-7" target="KF2JliIPJxlirztMf3KN-26">
          <mxGeometry relative="1" as="geometry" />
        </mxCell>
        <mxCell id="KF2JliIPJxlirztMf3KN-7" value="Отдел по закупке&amp;nbsp;" style="rounded=0;whiteSpace=wrap;html=1;" vertex="1" parent="WIyWlLk6GJQsqaUBKTNV-1">
          <mxGeometry x="340" y="300" width="120" height="60" as="geometry" />
        </mxCell>
        <mxCell id="KF2JliIPJxlirztMf3KN-9" value="Покупка растворителя&amp;nbsp;" style="rounded=0;whiteSpace=wrap;html=1;" vertex="1" parent="WIyWlLk6GJQsqaUBKTNV-1">
          <mxGeometry x="220" y="400" width="120" height="60" as="geometry" />
        </mxCell>
        <mxCell id="KF2JliIPJxlirztMf3KN-10" value="Покупка пигмента&amp;nbsp;" style="rounded=0;whiteSpace=wrap;html=1;" vertex="1" parent="WIyWlLk6GJQsqaUBKTNV-1">
          <mxGeometry x="430" y="400" width="120" height="60" as="geometry" />
        </mxCell>
        <mxCell id="KF2JliIPJxlirztMf3KN-17" style="edgeStyle=orthogonalEdgeStyle;rounded=0;orthogonalLoop=1;jettySize=auto;html=1;exitX=0.5;exitY=1;exitDx=0;exitDy=0;entryX=0.5;entryY=0;entryDx=0;entryDy=0;" edge="1" parent="WIyWlLk6GJQsqaUBKTNV-1" source="KF2JliIPJxlirztMf3KN-16" target="KF2JliIPJxlirztMf3KN-7">
          <mxGeometry relative="1" as="geometry" />
        </mxCell>
        <mxCell id="KF2JliIPJxlirztMf3KN-39" style="edgeStyle=orthogonalEdgeStyle;rounded=0;orthogonalLoop=1;jettySize=auto;html=1;exitX=0.5;exitY=1;exitDx=0;exitDy=0;entryX=0.5;entryY=0;entryDx=0;entryDy=0;" edge="1" parent="WIyWlLk6GJQsqaUBKTNV-1" source="KF2JliIPJxlirztMf3KN-16" target="KF2JliIPJxlirztMf3KN-38">
          <mxGeometry relative="1" as="geometry">
            <mxPoint x="630" y="390" as="targetPoint" />
            <Array as="points">
              <mxPoint x="400" y="270" />
              <mxPoint x="570" y="270" />
              <mxPoint x="570" y="380" />
              <mxPoint x="630" y="380" />
            </Array>
          </mxGeometry>
        </mxCell>
        <mxCell id="KF2JliIPJxlirztMf3KN-16" value="&lt;span&gt;Производственная структура&lt;/span&gt;" style="rounded=0;whiteSpace=wrap;html=1;" vertex="1" parent="WIyWlLk6GJQsqaUBKTNV-1">
          <mxGeometry x="340" y="130" width="120" height="60" as="geometry" />
        </mxCell>
        <mxCell id="KF2JliIPJxlirztMf3KN-78" style="edgeStyle=orthogonalEdgeStyle;rounded=0;orthogonalLoop=1;jettySize=auto;html=1;exitX=0.5;exitY=1;exitDx=0;exitDy=0;entryX=0.5;entryY=0;entryDx=0;entryDy=0;" edge="1" parent="WIyWlLk6GJQsqaUBKTNV-1" source="KF2JliIPJxlirztMf3KN-21" target="KF2JliIPJxlirztMf3KN-73">
          <mxGeometry relative="1" as="geometry" />
        </mxCell>
        <mxCell id="KF2JliIPJxlirztMf3KN-21" value="хозяйственная структура" style="rounded=0;whiteSpace=wrap;html=1;" vertex="1" parent="WIyWlLk6GJQsqaUBKTNV-1">
          <mxGeometry x="640" y="180" width="120" height="50" as="geometry" />
        </mxCell>
        <mxCell id="KF2JliIPJxlirztMf3KN-26" value="Покупка упаковочного материала&amp;nbsp;" style="rounded=0;whiteSpace=wrap;html=1;" vertex="1" parent="WIyWlLk6GJQsqaUBKTNV-1">
          <mxGeometry x="330" y="480" width="120" height="60" as="geometry" />
        </mxCell>
        <mxCell id="KF2JliIPJxlirztMf3KN-28" value="Упаковочный цех" style="rounded=0;whiteSpace=wrap;html=1;" vertex="1" parent="WIyWlLk6GJQsqaUBKTNV-1">
          <mxGeometry x="-70" width="120" height="60" as="geometry" />
        </mxCell>
        <mxCell id="KF2JliIPJxlirztMf3KN-52" style="edgeStyle=orthogonalEdgeStyle;rounded=0;orthogonalLoop=1;jettySize=auto;html=1;exitX=0.5;exitY=1;exitDx=0;exitDy=0;" edge="1" parent="WIyWlLk6GJQsqaUBKTNV-1" source="KF2JliIPJxlirztMf3KN-32" target="KF2JliIPJxlirztMf3KN-51">
          <mxGeometry relative="1" as="geometry" />
        </mxCell>
        <mxCell id="KF2JliIPJxlirztMf3KN-32" value="организационная струкутра" style="rounded=0;whiteSpace=wrap;html=1;" vertex="1" parent="WIyWlLk6GJQsqaUBKTNV-1">
          <mxGeometry x="390" y="-220" width="120" height="50" as="geometry" />
        </mxCell>
        <mxCell id="KF2JliIPJxlirztMf3KN-38" value="складирование краски" style="rounded=0;whiteSpace=wrap;html=1;" vertex="1" parent="WIyWlLk6GJQsqaUBKTNV-1">
          <mxGeometry x="570" y="400" width="120" height="60" as="geometry" />
        </mxCell>
        <mxCell id="KF2JliIPJxlirztMf3KN-79" style="edgeStyle=orthogonalEdgeStyle;rounded=0;orthogonalLoop=1;jettySize=auto;html=1;exitX=0.5;exitY=1;exitDx=0;exitDy=0;" edge="1" parent="WIyWlLk6GJQsqaUBKTNV-1" source="KF2JliIPJxlirztMf3KN-46">
          <mxGeometry relative="1" as="geometry">
            <mxPoint x="400" y="300" as="targetPoint" />
            <Array as="points">
              <mxPoint x="480" y="60" />
              <mxPoint x="480" y="230" />
              <mxPoint x="400" y="230" />
            </Array>
          </mxGeometry>
        </mxCell>
        <mxCell id="KF2JliIPJxlirztMf3KN-46" value="Главный бухгалтер" style="rounded=0;whiteSpace=wrap;html=1;" vertex="1" parent="WIyWlLk6GJQsqaUBKTNV-1">
          <mxGeometry x="390" width="120" height="60" as="geometry" />
        </mxCell>
        <mxCell id="KF2JliIPJxlirztMf3KN-60" style="edgeStyle=orthogonalEdgeStyle;rounded=0;orthogonalLoop=1;jettySize=auto;html=1;exitX=0.5;exitY=1;exitDx=0;exitDy=0;" edge="1" parent="WIyWlLk6GJQsqaUBKTNV-1" source="KF2JliIPJxlirztMf3KN-51">
          <mxGeometry relative="1" as="geometry">
            <mxPoint x="450" as="targetPoint" />
          </mxGeometry>
        </mxCell>
        <mxCell id="KF2JliIPJxlirztMf3KN-70" style="edgeStyle=orthogonalEdgeStyle;rounded=0;orthogonalLoop=1;jettySize=auto;html=1;exitX=0.5;exitY=1;exitDx=0;exitDy=0;" edge="1" parent="WIyWlLk6GJQsqaUBKTNV-1" source="KF2JliIPJxlirztMf3KN-51" target="KF2JliIPJxlirztMf3KN-67">
          <mxGeometry relative="1" as="geometry" />
        </mxCell>
        <mxCell id="KF2JliIPJxlirztMf3KN-51" value="Генеральный директор" style="rounded=0;whiteSpace=wrap;html=1;" vertex="1" parent="WIyWlLk6GJQsqaUBKTNV-1">
          <mxGeometry x="390" y="-130" width="120" height="60" as="geometry" />
        </mxCell>
        <mxCell id="KF2JliIPJxlirztMf3KN-76" style="edgeStyle=orthogonalEdgeStyle;rounded=0;orthogonalLoop=1;jettySize=auto;html=1;exitX=0.5;exitY=1;exitDx=0;exitDy=0;entryX=0.5;entryY=0;entryDx=0;entryDy=0;" edge="1" parent="WIyWlLk6GJQsqaUBKTNV-1" source="KF2JliIPJxlirztMf3KN-67" target="KF2JliIPJxlirztMf3KN-75">
          <mxGeometry relative="1" as="geometry">
            <Array as="points">
              <mxPoint x="610" y="70" />
              <mxPoint x="610" y="150" />
              <mxPoint x="515" y="150" />
            </Array>
          </mxGeometry>
        </mxCell>
        <mxCell id="KF2JliIPJxlirztMf3KN-67" value="Главный технолог" style="rounded=0;whiteSpace=wrap;html=1;" vertex="1" parent="WIyWlLk6GJQsqaUBKTNV-1">
          <mxGeometry x="550" y="10" width="120" height="60" as="geometry" />
        </mxCell>
        <mxCell id="KF2JliIPJxlirztMf3KN-73" value="уборка помещений и оборудования&amp;nbsp;" style="rounded=0;whiteSpace=wrap;html=1;" vertex="1" parent="WIyWlLk6GJQsqaUBKTNV-1">
          <mxGeometry x="650" y="250" width="100" height="40" as="geometry" />
        </mxCell>
        <mxCell id="KF2JliIPJxlirztMf3KN-75" value="Разработка новых оттенков краски" style="rounded=0;whiteSpace=wrap;html=1;" vertex="1" parent="WIyWlLk6GJQsqaUBKTNV-1">
          <mxGeometry x="470" y="300" width="90" height="40" as="geometry" />
        </mxCell>
        <mxCell id="KF2JliIPJxlirztMf3KN-82" value="лаборатория по оценке качества" style="rounded=0;whiteSpace=wrap;html=1;" vertex="1" parent="WIyWlLk6GJQsqaUBKTNV-1">
          <mxGeometry x="660" y="320" width="120" height="60" as="geometry" />
        </mxCell>
        <mxCell id="KF2JliIPJxlirztMf3KN-86" value="цех по разбиению пигмента чернил" style="rounded=0;whiteSpace=wrap;html=1;" vertex="1" parent="WIyWlLk6GJQsqaUBKTNV-1">
          <mxGeometry x="230" width="120" height="60" as="geometry" />
        </mxCell>
        <mxCell id="KF2JliIPJxlirztMf3KN-99" style="edgeStyle=orthogonalEdgeStyle;rounded=0;orthogonalLoop=1;jettySize=auto;html=1;exitX=0.5;exitY=1;exitDx=0;exitDy=0;entryX=0.5;entryY=0;entryDx=0;entryDy=0;" edge="1" parent="WIyWlLk6GJQsqaUBKTNV-1" source="KF2JliIPJxlirztMf3KN-92" target="KF2JliIPJxlirztMf3KN-0">
          <mxGeometry relative="1" as="geometry" />
        </mxCell>
        <mxCell id="KF2JliIPJxlirztMf3KN-100" style="edgeStyle=orthogonalEdgeStyle;rounded=0;orthogonalLoop=1;jettySize=auto;html=1;exitX=0.5;exitY=1;exitDx=0;exitDy=0;" edge="1" parent="WIyWlLk6GJQsqaUBKTNV-1" source="KF2JliIPJxlirztMf3KN-92" target="KF2JliIPJxlirztMf3KN-86">
          <mxGeometry relative="1" as="geometry" />
        </mxCell>
        <mxCell id="KF2JliIPJxlirztMf3KN-101" style="edgeStyle=orthogonalEdgeStyle;rounded=0;orthogonalLoop=1;jettySize=auto;html=1;exitX=0.5;exitY=1;exitDx=0;exitDy=0;" edge="1" parent="WIyWlLk6GJQsqaUBKTNV-1" source="KF2JliIPJxlirztMf3KN-92" target="KF2JliIPJxlirztMf3KN-28">
          <mxGeometry relative="1" as="geometry" />
        </mxCell>
        <mxCell id="KF2JliIPJxlirztMf3KN-92" value="Начальник технологического процесса" style="rounded=0;whiteSpace=wrap;html=1;" vertex="1" parent="WIyWlLk6GJQsqaUBKTNV-1">
          <mxGeometry x="80" y="-130" width="120" height="60" as="geometry" />
        </mxCell>
        <mxCell id="KF2JliIPJxlirztMf3KN-96" style="edgeStyle=orthogonalEdgeStyle;rounded=0;orthogonalLoop=1;jettySize=auto;html=1;exitX=0.5;exitY=1;exitDx=0;exitDy=0;" edge="1" parent="WIyWlLk6GJQsqaUBKTNV-1" source="KF2JliIPJxlirztMf3KN-95" target="KF2JliIPJxlirztMf3KN-21">
          <mxGeometry relative="1" as="geometry" />
        </mxCell>
        <mxCell id="KF2JliIPJxlirztMf3KN-95" value="Завхоз" style="rounded=0;whiteSpace=wrap;html=1;" vertex="1" parent="WIyWlLk6GJQsqaUBKTNV-1">
          <mxGeometry x="640" y="80" width="120" height="60" as="geometry" />
        </mxCell>
      </root>
    </mxGraphModel>
  </diagram>
</mxfile>
